<svg width="91" height="78" viewBox="0 0 91 78" fill="none" xmlns="http://www.w3.org/2000/svg">
<g clip-path="url(#clip0_201_636)">
<path d="M68.3743 52.6378H22.6262V20.0495L45.5001 2.1459L68.3743 20.0495V52.6378Z" fill="#FFF476"/>
<path d="M50.1726 52.7922H40.8252V75.8541H50.1726V52.7922Z" fill="#00D7DF"/>
<path d="M80.1543 75.8538C80.2865 75.31 80.3569 74.747 80.3569 74.1696C80.3569 69.6343 76.0674 65.9576 70.7763 65.9576C67.2226 65.9576 64.1231 67.6174 62.4693 70.0807C61.2358 69.3836 59.7592 68.9766 58.1715 68.9766C53.8529 68.9766 50.3521 71.9774 50.3521 75.679C50.3521 75.7377 50.3552 75.7956 50.3574 75.8538H80.1543Z" fill="#7BD36A"/>
<path d="M40.4458 75.8538C40.578 75.31 40.6484 74.747 40.6484 74.1696C40.6484 69.6343 36.3589 65.9576 31.0678 65.9576C27.5141 65.9576 24.4146 67.6174 22.7608 70.0807C21.5273 69.3836 20.0507 68.9766 18.463 68.9766C14.1444 68.9766 10.6436 71.9774 10.6436 75.679C10.6436 75.7377 10.6468 75.7956 10.6489 75.8538H40.4458Z" fill="#7BD36A"/>
<path d="M70.7765 63.8117C67.2665 63.8117 63.9519 65.1334 61.6797 67.3561C60.5621 67.0097 59.3781 66.8307 58.1714 66.8307C56.1534 66.8307 54.2707 67.3314 52.6784 68.1928V54.7845H68.3743C69.7571 54.7845 70.8782 53.8237 70.8782 52.6383V24.5874L76.4473 28.8786C76.9258 29.2471 77.5242 29.4287 78.1207 29.4287C78.8061 29.4287 79.4891 29.1888 79.9834 28.7174C80.9078 27.8359 80.8237 26.4789 79.7953 25.6862L47.1743 0.550207C47.1424 0.525679 47.1089 0.504351 47.0762 0.4815C47.0499 0.463066 47.0241 0.443566 46.9971 0.426199C46.9628 0.404109 46.9267 0.384761 46.8913 0.364652C46.8615 0.347437 46.8323 0.329003 46.8019 0.31316C46.7674 0.295183 46.7315 0.279949 46.6965 0.263343C46.6636 0.248109 46.6315 0.231351 46.598 0.217487C46.5625 0.20271 46.5259 0.19037 46.4898 0.177116C46.4557 0.164472 46.4219 0.150761 46.3874 0.139335C46.3499 0.127147 46.3114 0.117702 46.2733 0.10719C46.2392 0.0977451 46.2054 0.0867763 46.1709 0.0787021C46.1301 0.0691044 46.0888 0.0622489 46.0474 0.0544793C46.0149 0.0482332 45.9826 0.0404637 45.95 0.0354363C45.9011 0.0276668 45.8516 0.0234012 45.8025 0.0182215C45.7769 0.0156316 45.7517 0.011366 45.7261 0.00938551C45.5761 -0.00219263 45.4252 -0.00219263 45.2748 0.00938551C45.2492 0.011366 45.224 0.0156316 45.1984 0.0182215C45.149 0.0234012 45.0997 0.0278191 45.0509 0.0354363C45.018 0.040616 44.9858 0.0483856 44.9535 0.0544793C44.9122 0.0624012 44.8708 0.0691044 44.8299 0.0787021C44.7955 0.0869286 44.7615 0.0977451 44.7276 0.10719C44.6895 0.117702 44.651 0.127147 44.6135 0.139335C44.579 0.150456 44.545 0.164472 44.5111 0.177116C44.475 0.19037 44.4382 0.20271 44.4028 0.217487C44.3696 0.231503 44.3373 0.247956 44.3044 0.263343C44.269 0.279796 44.2335 0.295183 44.199 0.31316C44.1684 0.329003 44.1394 0.347437 44.1096 0.364652C44.0742 0.385066 44.0381 0.404414 44.0038 0.426199C43.9768 0.443566 43.9512 0.463066 43.9247 0.4815C43.8919 0.504199 43.8584 0.525679 43.8266 0.550207L11.2047 25.6862C10.1763 26.4786 10.092 27.8358 11.0166 28.7174C11.9408 29.5989 13.5239 29.6708 14.5528 28.8786L20.122 24.5874V52.6382C20.122 53.8235 21.2433 54.7844 22.6259 54.7844H38.3218V65.8915C36.3001 64.5865 33.7876 63.8117 31.0674 63.8117C27.5573 63.8117 24.2429 65.133 21.9708 67.3561C20.8535 67.0097 19.6691 66.8307 18.4625 66.8307C12.7701 66.8307 8.13892 70.8003 8.13892 75.6794C8.13892 75.7425 8.14087 75.8054 8.14336 75.868L8.14478 75.9081C8.17908 77.072 9.28957 78.0002 10.648 78.0002H40.4452C40.5138 78.0002 40.5817 77.9972 40.6491 77.9925C40.7077 77.996 40.766 78.0002 40.8256 78.0002H50.1741C50.2046 78.0002 50.2345 77.9972 50.2647 77.9964C50.2955 77.9975 50.3259 78.0002 50.3568 78.0002H80.1542C81.34 78.0002 82.3633 77.2873 82.6053 76.2922C82.7749 75.5961 82.8607 74.8821 82.8607 74.1697C82.8609 68.4585 77.44 63.8117 70.7765 63.8117ZM25.1302 20.9966L45.5004 5.05304L65.8705 20.9966V50.4918H25.1302V20.9966ZM13.6711 73.7078C14.5303 72.1801 16.3554 71.1233 18.4628 71.1233C19.5051 71.1233 20.5146 71.3826 21.3823 71.873C21.959 72.1988 22.6668 72.3056 23.3384 72.1696C24.0104 72.0331 24.5865 71.6647 24.9309 71.1518C26.1932 69.272 28.5446 68.1044 31.0678 68.1044C34.7885 68.1044 37.8478 70.5782 38.124 73.7079H13.6711V73.7078ZM47.6703 73.7078H43.3299V54.9386H47.6703V73.7078ZM53.38 73.7078C54.2392 72.1801 56.064 71.1233 58.1714 71.1233C59.2137 71.1233 60.2232 71.3826 61.0914 71.873C61.6678 72.1985 62.3756 72.3059 63.0476 72.1694C63.7196 72.0329 64.2956 71.6646 64.6399 71.1516C65.902 69.2721 68.2534 68.1043 70.7767 68.1043C74.4974 68.1043 77.5568 70.578 77.833 73.7078H53.38Z" fill="black"/>
<path d="M45.5003 34.4227C50.6742 34.4227 54.8685 30.8276 54.8685 26.3928C54.8685 21.9581 50.6742 18.3629 45.5003 18.3629C40.3264 18.3629 36.1321 21.9581 36.1321 26.3928C36.1321 30.8276 40.3264 34.4227 45.5003 34.4227Z" fill="#00D7DF"/>
<path d="M45.5001 36.5687C38.9536 36.5687 33.6282 32.0037 33.6282 26.3924C33.6282 20.7811 38.954 16.2161 45.5001 16.2161C52.0463 16.2161 57.3721 20.7811 57.3721 26.3924C57.3721 32.0037 52.0466 36.5687 45.5001 36.5687ZM45.5001 20.509C41.7153 20.509 38.6362 23.1484 38.6362 26.3927C38.6362 29.637 41.7155 32.2764 45.5001 32.2764C49.2848 32.2764 52.3641 29.637 52.3641 26.3927C52.3641 23.1484 49.2848 20.509 45.5001 20.509Z" fill="black"/>
<path d="M48.0039 45.1618H35.4839C34.1011 45.1618 32.98 44.2009 32.98 43.0155C32.98 41.8302 34.1013 40.8693 35.4839 40.8693H48.0039C49.3867 40.8693 50.5078 41.8302 50.5078 43.0155C50.508 44.2008 49.3869 45.1618 48.0039 45.1618Z" fill="black"/>
<path d="M55.5162 45.1619C55.3534 45.1619 55.188 45.1469 55.028 45.119C54.8677 45.0932 54.71 45.0503 54.5572 44.9967C54.4066 44.943 54.2618 44.8765 54.1265 44.7992C53.9886 44.722 53.8608 44.6318 53.7457 44.5331C53.28 44.1339 53.012 43.5802 53.012 43.0156C53.012 42.876 53.0271 42.7343 53.0592 42.5971C53.0916 42.4597 53.1419 42.3245 53.2044 42.1935C53.267 42.0648 53.3422 41.9403 53.4323 41.8244C53.5249 41.7063 53.6301 41.5969 53.7453 41.4982C53.8605 41.3995 53.9883 41.3093 54.1262 41.2299C54.2614 41.1527 54.4065 41.0883 54.5568 41.0346C54.7095 40.981 54.8673 40.9381 55.0277 40.9123C55.3506 40.8566 55.6812 40.8544 56.0043 40.9123C56.1646 40.9381 56.3223 40.981 56.4723 41.0346C56.625 41.0883 56.7703 41.1527 56.9054 41.2299C57.0432 41.3093 57.1708 41.3995 57.2859 41.4982C57.4013 41.5969 57.5065 41.7065 57.5965 41.8244C57.6866 41.9403 57.7642 42.0648 57.8268 42.1935C57.8894 42.3244 57.9395 42.4597 57.9695 42.5971C58.002 42.7345 58.0196 42.8762 58.0196 43.0156C58.0196 43.155 58.002 43.2968 57.9695 43.4341C57.9395 43.5715 57.8894 43.7066 57.8268 43.8355C57.7642 43.9664 57.6866 44.091 57.5965 44.2068C57.5065 44.3248 57.4013 44.4342 57.2859 44.5329C57.1708 44.6316 57.043 44.7218 56.9054 44.7991C56.7702 44.8763 56.625 44.9429 56.4723 44.9965C56.3221 45.0501 56.1646 45.0931 56.0043 45.1188C55.8442 45.147 55.6789 45.1619 55.5162 45.1619Z" fill="black"/>
</g>
<defs>
<clipPath id="clip0_201_636">
<rect width="91" height="78" fill="white"/>
</clipPath>
</defs>
</svg>
