<svg width="48" height="48" viewBox="0 0 48 48" fill="none" xmlns="http://www.w3.org/2000/svg">
<g clip-path="url(#clip0_30_45)">
<path d="M16 34L24 42M24 42L32 34M24 42V24M41.76 36.18C43.4988 34.9573 44.8027 33.2123 45.4826 31.1983C46.1624 29.1843 46.1828 27.006 45.5408 24.9796C44.8988 22.9533 43.6277 21.1842 41.9121 19.9291C40.1965 18.6741 38.1256 17.9983 36 18H33.48C32.8785 15.6557 31.753 13.4785 30.1882 11.6321C28.6235 9.78581 26.6603 8.31851 24.4464 7.3407C22.2325 6.36288 19.8257 5.90004 17.407 5.98702C14.9884 6.074 12.621 6.70853 10.4831 7.84284C8.34517 8.97715 6.49244 10.5817 5.06436 12.5356C3.63629 14.4896 2.67009 16.7421 2.23851 19.1235C1.80693 21.5049 1.92121 23.9532 2.57275 26.284C3.22429 28.6149 4.39611 30.7676 5.99999 32.58" stroke="#F3F3F3" stroke-width="4" stroke-linecap="round" stroke-linejoin="round"/>
</g>
<defs>
<clipPath id="clip0_30_45">
<rect width="48" height="48" fill="white"/>
</clipPath>
</defs>
</svg>
